<svg width="10" height="10" viewBox="0 0 10 10" fill="none" xmlns="http://www.w3.org/2000/svg">
<g clip-path="url(#clip0_706_14230)">
<path fill-rule="evenodd" clip-rule="evenodd" d="M5 9.5C7.48528 9.5 9.5 7.48528 9.5 5C9.5 2.51472 7.48528 0.5 5 0.5C2.51472 0.5 0.5 2.51472 0.5 5C0.5 7.48528 2.51472 9.5 5 9.5ZM5 3.5C5.41421 3.5 5.75 3.16421 5.75 2.75C5.75 2.33579 5.41421 2 5 2C4.58579 2 4.25 2.33579 4.25 2.75C4.25 3.16421 4.58579 3.5 5 3.5ZM5.5 7.5V4.5H4.5V7.5H5.5Z" fill="#EAEFF3"/>
</g>
<defs>
<clipPath id="clip0_706_14230">
<rect width="10" height="10" fill="white"/>
</clipPath>
</defs>
</svg>
