<svg width="84" height="84" viewBox="0 0 84 84" fill="none" xmlns="http://www.w3.org/2000/svg">
<rect width="84" height="84" rx="42" fill="#0015FF"/>
<path fill-rule="evenodd" clip-rule="evenodd" d="M43.6667 53.6667V51.8819C46.9725 51.409 49.8313 49.5503 51.6356 46.9131C56.159 46.2898 58.6667 42.3714 58.6667 37V32C58.6667 30.1591 57.1743 28.6667 55.3333 28.6667H53.2207C52.6444 27.6703 51.5671 27 50.3333 27H33.6667C32.4329 27 31.3556 27.6703 30.7793 28.6667H28.6667C26.8257 28.6667 25.3333 30.1591 25.3333 32V37C25.3333 42.3714 27.841 46.2898 32.3644 46.9131C34.1687 49.5503 37.0275 51.409 40.3333 51.8819V53.6667H38.6667C36.8257 53.6667 35.3333 55.159 35.3333 57H48.6667C48.6667 55.159 47.1743 53.6667 45.3333 53.6667H43.6667ZM28.6667 32H30.3333V40.3333C30.3333 41.0963 30.4066 41.8421 30.5464 42.5641C29.3171 41.4577 28.6667 39.5521 28.6667 37V32ZM53.6667 32V40.3333C53.6667 41.0963 53.5934 41.8421 53.4536 42.5642C54.6829 41.4577 55.3333 39.5521 55.3333 37V32H53.6667ZM33.6667 40.3333V30.3333H50.3333V40.3333C50.3333 44.9357 46.6024 48.6667 42 48.6667C37.3976 48.6667 33.6667 44.9357 33.6667 40.3333Z" fill="white"/>
</svg>
